<?xml version="1.0" standalone="no"?>
<!DOCTYPE svg PUBLIC "-//W3C//DTD SVG 20010904//EN"
 "http://www.w3.org/TR/2001/REC-SVG-20010904/DTD/svg10.dtd">
<svg version="1.0" xmlns="http://www.w3.org/2000/svg"
 width="64.000000pt" height="64.000000pt" viewBox="0 0 64.000000 64.000000"
 preserveAspectRatio="xMidYMid meet">

<g transform="translate(0.000000,64.000000) scale(0.100000,-0.100000)"
fill="#000000" stroke="none">
<path d="M46 554 c-24 -24 -24 -445 0 -469 14 -14 48 -16 281 -13 221 3 265 5
273 18 5 8 10 113 10 232 0 184 -2 219 -16 232 -23 24 -525 24 -548 0z m543
-18 c7 -8 11 -32 9 -53 l-3 -38 -275 0 -275 0 -3 38 c-6 68 -9 67 278 67 211
0 260 -3 269 -14z m11 -264 c0 -110 -4 -162 -12 -170 -17 -17 -519 -17 -536 0
-8 8 -12 60 -12 170 l0 158 280 0 280 0 0 -158z"/>
<path d="M65 509 c-14 -42 44 -63 59 -22 4 9 1 22 -5 29 -17 21 -47 17 -54 -7z
m45 -15 c0 -8 -7 -14 -15 -14 -15 0 -21 21 -9 33 10 9 24 -2 24 -19z"/>
<path d="M157 524 c-13 -13 -7 -52 9 -58 22 -9 46 13 42 38 -3 21 -37 34 -51
20z m39 -15 c10 -17 -13 -36 -27 -22 -12 12 -4 33 11 33 5 0 12 -5 16 -11z"/>
<path d="M235 509 c-14 -43 45 -66 61 -24 8 19 -13 45 -37 45 -10 0 -21 -10
-24 -21z m45 -15 c0 -8 -7 -14 -15 -14 -15 0 -21 21 -9 33 10 9 24 -2 24 -19z"/>
<path d="M282 393 c-35 -7 -90 -68 -98 -107 -24 -131 144 -219 234 -123 43 45
52 99 26 153 -28 58 -96 91 -162 77z m98 -28 c75 -39 79 -160 8 -209 -29 -21
-107 -21 -136 0 -49 34 -66 109 -37 164 29 55 105 76 165 45z"/>
<path d="M315 278 c-3 -29 -9 -61 -11 -70 -3 -10 -1 -18 4 -18 6 0 13 24 17
53 3 28 9 60 11 70 3 9 1 17 -4 17 -6 0 -13 -24 -17 -52z"/>
<path d="M255 285 l-30 -25 28 -25 c15 -14 33 -25 40 -25 7 1 -1 11 -17 24
l-29 24 29 26 c37 33 19 34 -21 1z"/>
<path d="M364 284 l29 -26 -29 -24 c-16 -13 -24 -23 -17 -24 7 0 25 11 40 25
l28 25 -30 25 c-40 33 -58 32 -21 -1z"/>
</g>
</svg>
