<svg xmlns="http://www.w3.org/2000/svg" xmlns:xlink="http://www.w3.org/1999/xlink" viewBox="0,0,256,256" width="24px" height="24px"><g fill="#000000" fill-rule="evenodd" stroke="none" stroke-width="1" stroke-linecap="butt" stroke-linejoin="miter" stroke-miterlimit="10" stroke-dasharray="" stroke-dashoffset="0" font-family="none" font-weight="none" font-size="none" text-anchor="none" style="mix-blend-mode: normal"><g transform="scale(10.66667,10.66667)"><path d="M3.07422,8.0625c-1.5625,1.83594 -3.07422,4.05078 -3.07422,5.80859c0,1.01953 0.85547,2.44922 2.94141,2.44922c1.12891,0 2.25391,-0.45703 3.12891,-0.80469c1.48047,-0.59375 17.82813,-7.69141 17.82813,-7.69141c0.16016,-0.08203 0.12891,-0.17969 -0.07031,-0.12891c-0.07812,0.01953 -17.79687,4.82031 -17.79687,4.82031c-0.33984,0.09766 -0.69141,0.14844 -1.03125,0.14844c-1.53125,0 -2.5625,-0.73437 -2.5625,-2.33984c0,-0.625 0.19531,-1.375 0.63672,-2.26172z"></path></g></g></svg>