<?xml version="1.0" encoding="UTF-8"?>
<!DOCTYPE svg PUBLIC "-//W3C//DTD SVG 1.1//EN" "http://www.w3.org/Graphics/SVG/1.1/DTD/svg11.dtd">
<svg xmlns="http://www.w3.org/2000/svg" version="1.1" width="48px" height="48px" style="shape-rendering:geometricPrecision; text-rendering:geometricPrecision; image-rendering:optimizeQuality; fill-rule:evenodd; clip-rule:evenodd" xmlns:xlink="http://www.w3.org/1999/xlink">
<g><path style="opacity:0.916" fill="#e6ac57" d="M 35.5,8.5 C 32.5198,8.37972 29.6865,7.71305 27,6.5C 26.6174,7.05596 26.1174,7.38929 25.5,7.5C 23.5,6.16667 21.5,6.16667 19.5,7.5C 18.1667,7.5 16.8333,7.5 15.5,7.5C 18.1864,6.00919 21.1864,5.34252 24.5,5.5C 28.6533,5.13271 32.32,6.13271 35.5,8.5 Z"/></g>
<g><path style="opacity:1" fill="#efbe71" d="M 15.5,7.5 C 16.8333,7.5 18.1667,7.5 19.5,7.5C 20.7383,7.81001 20.7383,8.31001 19.5,9C 22.3647,9.1829 25.0314,9.6829 27.5,10.5C 24.8333,10.5 22.1667,10.5 19.5,10.5C 18.2921,9.76589 16.9587,9.43255 15.5,9.5C 13.8333,10.1667 12.1667,10.8333 10.5,11.5C 11.5846,9.41311 13.2512,8.07978 15.5,7.5 Z"/></g>
<g><path style="opacity:1" fill="#eec174" d="M 19.5,7.5 C 21.5,6.16667 23.5,6.16667 25.5,7.5C 24.1266,7.34332 22.7932,7.50999 21.5,8C 24.5,8.33333 27.5,8.66667 30.5,9C 32.8808,9.22329 34.5475,10.39 35.5,12.5C 32.9752,11.36 30.3085,10.6933 27.5,10.5C 25.0314,9.6829 22.3647,9.1829 19.5,9C 20.7383,8.31001 20.7383,7.81001 19.5,7.5 Z"/></g>
<g><path style="opacity:1" fill="#e7b361" d="M 35.5,8.5 C 35.8925,10.2838 36.5592,11.9505 37.5,13.5C 36.8333,13.5 36.1667,13.5 35.5,13.5C 35.5,13.1667 35.5,12.8333 35.5,12.5C 34.5475,10.39 32.8808,9.22329 30.5,9C 27.5,8.66667 24.5,8.33333 21.5,8C 22.7932,7.50999 24.1266,7.34332 25.5,7.5C 26.1174,7.38929 26.6174,7.05596 27,6.5C 29.6865,7.71305 32.5198,8.37972 35.5,8.5 Z"/></g>
<g><path style="opacity:1" fill="#f5ce86" d="M 19.5,10.5 C 22.1667,10.5 24.8333,10.5 27.5,10.5C 30.3085,10.6933 32.9752,11.36 35.5,12.5C 35.5,12.8333 35.5,13.1667 35.5,13.5C 30.0714,12.4939 24.7381,11.4939 19.5,10.5 Z"/></g>
<g><path style="opacity:1" fill="#f1c378" d="M 15.5,9.5 C 15.0472,10.4584 14.3805,11.2917 13.5,12C 14.1667,12.3333 14.8333,12.6667 15.5,13C 13.4736,14.5941 11.4736,16.0941 9.5,17.5C 8.83333,18.1667 8.16667,18.8333 7.5,19.5C 7.5,18.1667 7.5,16.8333 7.5,15.5C 7.73758,13.5956 8.73758,12.2623 10.5,11.5C 12.1667,10.8333 13.8333,10.1667 15.5,9.5 Z"/></g>
<g><path style="opacity:0.989" fill="#fad895" d="M 15.5,9.5 C 16.9587,9.43255 18.2921,9.76589 19.5,10.5C 24.7381,11.4939 30.0714,12.4939 35.5,13.5C 36.1667,13.5 36.8333,13.5 37.5,13.5C 38.4734,13.9867 39.4734,14.4867 40.5,15C 40.2716,15.3988 39.9382,15.5654 39.5,15.5C 35.9009,14.6561 32.2343,14.3227 28.5,14.5C 24.1944,14.492 20.1944,15.492 16.5,17.5C 15.8076,16.9747 15.3076,16.3081 15,15.5C 14.6012,15.7284 14.4346,16.0618 14.5,16.5C 12.3812,16.4677 11.0478,17.4677 10.5,19.5C 10.1667,19.5 9.83333,19.5 9.5,19.5C 9.5,18.8333 9.5,18.1667 9.5,17.5C 11.4736,16.0941 13.4736,14.5941 15.5,13C 14.8333,12.6667 14.1667,12.3333 13.5,12C 14.3805,11.2917 15.0472,10.4584 15.5,9.5 Z"/></g>
<g><path style="opacity:0.984" fill="#e1a84d" d="M 35.5,8.5 C 37.4628,9.95991 39.2962,11.6266 41,13.5C 41.7494,14.635 41.5827,15.635 40.5,16.5C 39.8933,16.3764 39.56,16.0431 39.5,15.5C 39.9382,15.5654 40.2716,15.3988 40.5,15C 39.4734,14.4867 38.4734,13.9867 37.5,13.5C 36.5592,11.9505 35.8925,10.2838 35.5,8.5 Z"/></g>
<g><path style="opacity:0.999" fill="#fee3a1" d="M 28.5,14.5 C 24.3188,16.3316 20.6521,18.9983 17.5,22.5C 16.1667,22.5 14.8333,22.5 13.5,22.5C 13.6716,21.5084 13.3382,20.8417 12.5,20.5C 13.1667,19.1667 13.8333,17.8333 14.5,16.5C 14.4346,16.0618 14.6012,15.7284 15,15.5C 15.3076,16.3081 15.8076,16.9747 16.5,17.5C 20.1944,15.492 24.1944,14.492 28.5,14.5 Z"/></g>
<g><path style="opacity:0.941" fill="#e8ad5a" d="M 7.5,15.5 C 7.5,16.8333 7.5,18.1667 7.5,19.5C 6.52333,22.2869 6.19,25.2869 6.5,28.5C 6.5,29.1667 6.5,29.8333 6.5,30.5C 5.83798,28.6965 5.50465,26.6965 5.5,24.5C 5.34252,21.1864 6.00919,18.1864 7.5,15.5 Z"/></g>
<g><path style="opacity:0.809" fill="#ffefbd" d="M 13.5,22.5 C 14.8333,22.5 16.1667,22.5 17.5,22.5C 15.4893,25.869 14.4893,29.5357 14.5,33.5C 13.0027,31.7103 12.336,29.5437 12.5,27C 12.5085,25.2933 12.8418,23.7933 13.5,22.5 Z"/></g>
<g><path style="opacity:1" fill="#f6d08c" d="M 9.5,17.5 C 9.5,18.1667 9.5,18.8333 9.5,19.5C 8.3046,23.7867 8.3046,28.12 9.5,32.5C 8.5,31.1667 7.5,29.8333 6.5,28.5C 6.19,25.2869 6.52333,22.2869 7.5,19.5C 8.16667,18.8333 8.83333,18.1667 9.5,17.5 Z"/></g>
<g><path style="opacity:1" fill="#feedb9" d="M 12.5,20.5 C 13.3382,20.8417 13.6716,21.5084 13.5,22.5C 12.8418,23.7933 12.5085,25.2933 12.5,27C 12.336,29.5437 13.0027,31.7103 14.5,33.5C 14.5,34.1667 14.5,34.8333 14.5,35.5C 13.0256,34.5637 12.0256,33.2303 11.5,31.5C 11.185,27.6286 11.5184,23.9619 12.5,20.5 Z"/></g>
<g><path style="opacity:1" fill="#fce7af" d="M 14.5,16.5 C 13.8333,17.8333 13.1667,19.1667 12.5,20.5C 11.5184,23.9619 11.185,27.6286 11.5,31.5C 10.5166,27.7016 10.1832,23.7016 10.5,19.5C 11.0478,17.4677 12.3812,16.4677 14.5,16.5 Z"/></g>
<g><path style="opacity:1" fill="#e9b25f" d="M 6.5,28.5 C 7.5,29.8333 8.5,31.1667 9.5,32.5C 9.32842,33.4916 9.66175,34.1583 10.5,34.5C 10.5,35.5 10.5,36.5 10.5,37.5C 7.88814,35.9478 6.55481,33.6145 6.5,30.5C 6.5,29.8333 6.5,29.1667 6.5,28.5 Z"/></g>
<g><path style="opacity:1" fill="#fae0a5" d="M 9.5,19.5 C 9.83333,19.5 10.1667,19.5 10.5,19.5C 10.1832,23.7016 10.5166,27.7016 11.5,31.5C 12.0256,33.2303 13.0256,34.5637 14.5,35.5C 14.5,36.1667 14.5,36.8333 14.5,37.5C 13.1667,36.5 11.8333,35.5 10.5,34.5C 9.66175,34.1583 9.32842,33.4916 9.5,32.5C 8.3046,28.12 8.3046,23.7867 9.5,19.5 Z"/></g>
<g><path style="opacity:1" fill="#f0c67d" d="M 10.5,34.5 C 11.8333,35.5 13.1667,36.5 14.5,37.5C 16.3773,38.829 16.5439,40.1623 15,41.5C 13.0198,40.6853 11.5198,39.352 10.5,37.5C 10.5,36.5 10.5,35.5 10.5,34.5 Z"/></g>
</svg>
